<svg width="118" height="61" viewBox="0 0 118 61" fill="none" xmlns="http://www.w3.org/2000/svg">
<path d="M104.328 60.5947C103.581 60.6214 102.968 60.408 102.488 59.9547C102.035 59.5014 101.781 58.9014 101.728 58.1547C101.701 57.4614 101.928 56.888 102.408 56.4347C102.915 55.9547 103.555 55.688 104.328 55.6347C104.861 55.5814 105.208 55.488 105.368 55.3547C105.555 55.1947 105.648 54.9014 105.648 54.4747V53.7947H98.3681C98.4481 53.8747 98.5014 53.9414 98.5281 53.9947C98.6881 54.2614 98.8881 54.608 99.1281 55.0347C99.3681 55.4614 99.5814 55.8347 99.7681 56.1547C100.115 56.7947 100.168 57.408 99.9281 57.9947C99.7147 58.608 99.2881 59.088 98.6481 59.4347C97.9814 59.7814 97.3014 59.8614 96.6081 59.6747C95.9414 59.488 95.4347 59.0747 95.0881 58.4347C94.7414 57.6614 94.3547 56.928 93.9281 56.2347C93.7147 55.808 93.6214 55.3814 93.6481 54.9547C93.7014 54.528 93.8614 54.1414 94.1281 53.7947H90.7281C90.3014 53.7947 89.9147 53.6747 89.5681 53.4347C89.2214 53.168 88.9814 52.848 88.8481 52.4747C88.5281 53.0614 88.1547 53.7147 87.7281 54.4347C87.3014 55.128 86.8747 55.8214 86.4481 56.5147C86.0214 57.1814 85.6347 57.768 85.2881 58.2747C84.8614 58.9414 84.2614 59.3547 83.4881 59.5147C82.7414 59.7014 82.0347 59.5814 81.3681 59.1547C80.7281 58.7547 80.3281 58.1947 80.1681 57.4747C80.0081 56.7814 80.1414 56.1414 80.5681 55.5547C80.9681 54.9947 81.4347 54.3014 81.9681 53.4747C82.5281 52.648 83.0614 51.8214 83.5681 50.9947C84.1014 50.168 84.5281 49.488 84.8481 48.9547C85.2747 48.2614 85.8347 47.8614 86.5281 47.7547C87.2481 47.6214 87.9281 47.768 88.5681 48.1947C89.2614 48.6747 89.6481 49.3014 89.7281 50.0747C90.0481 49.888 90.3814 49.7947 90.7281 49.7947H105.648V48.8747H98.6881C96.7948 48.8747 95.3147 48.728 94.2481 48.4347C93.2081 48.1414 92.4881 47.608 92.0881 46.8347C91.6881 46.0347 91.4881 44.9014 91.4881 43.4347C91.4881 41.968 91.6881 40.848 92.0881 40.0747C92.4881 39.2747 93.2081 38.728 94.2481 38.4347C95.3147 38.1147 96.7948 37.9547 98.6881 37.9547H100.288V37.1947H91.9281C91.3947 37.1947 90.9414 37.008 90.5681 36.6347C90.1947 36.2347 90.0081 35.7814 90.0081 35.2747C90.0081 34.7414 90.1947 34.288 90.5681 33.9147C90.9414 33.5414 91.3947 33.3547 91.9281 33.3547H97.0881C96.6347 32.9814 96.3547 32.5147 96.2481 31.9547C96.1414 31.368 96.2614 30.8347 96.6081 30.3547C96.7414 30.168 96.8748 29.968 97.0081 29.7547C97.1414 29.5414 97.2747 29.3014 97.4081 29.0347C97.0614 29.248 96.7014 29.3547 96.3281 29.3547H93.3681C93.4214 29.4614 93.4747 29.5814 93.5281 29.7147C93.5814 29.8214 93.6214 29.928 93.6481 30.0347C93.9414 30.728 93.9281 31.3814 93.6081 31.9947C93.3147 32.5814 92.7814 33.008 92.0081 33.2747C91.3414 33.488 90.7014 33.488 90.0881 33.2747C89.4747 33.0347 89.0481 32.5814 88.8081 31.9147C88.6747 31.5147 88.5281 31.0747 88.3681 30.5947C88.2081 30.1147 88.0614 29.7014 87.9281 29.3547H86.5281C86.2081 29.888 85.9014 30.408 85.6081 30.9147C85.3147 31.3947 85.0214 31.8347 84.7281 32.2347C84.3014 32.848 83.7414 33.248 83.0481 33.4347C82.3547 33.5947 81.6614 33.4747 80.9681 33.0747C80.4081 32.7547 80.0481 32.2747 79.8881 31.6347C79.7547 30.968 79.8747 30.368 80.2481 29.8347C80.5947 29.328 80.9947 28.688 81.4481 27.9147C81.9014 27.1414 82.3414 26.3547 82.7681 25.5547C83.1947 24.7547 83.5281 24.1014 83.7681 23.5947C84.0614 22.9014 84.5414 22.448 85.2081 22.2347C85.9014 21.9947 86.5681 22.0214 87.2081 22.3147C87.8214 22.5814 88.2614 22.9814 88.5281 23.5147C88.7947 24.048 88.8214 24.608 88.6081 25.1947H96.3281C96.8614 25.1947 97.3281 25.3814 97.7281 25.7547C98.1281 26.128 98.3414 26.5814 98.3681 27.1147C98.6881 26.4747 98.9814 25.848 99.2481 25.2347C99.5414 24.6214 99.7681 24.1147 99.9281 23.7147C100.248 22.9414 100.755 22.448 101.448 22.2347C102.141 21.9947 102.835 22.0214 103.528 22.3147C104.141 22.5814 104.581 22.9814 104.848 23.5147C105.115 24.0214 105.168 24.5814 105.008 25.1947H114.408C114.995 25.1947 115.488 25.3947 115.888 25.7947C116.288 26.1947 116.488 26.688 116.488 27.2747C116.488 27.8614 116.288 28.3547 115.888 28.7547C115.488 29.1547 114.995 29.3547 114.408 29.3547H109.568L109.648 29.4747C109.701 29.6614 109.755 29.888 109.808 30.1547C110.315 29.9147 110.821 29.848 111.328 29.9547C111.835 30.0614 112.248 30.368 112.568 30.8747C112.621 30.928 112.741 31.1014 112.928 31.3947C113.115 31.688 113.301 31.9814 113.488 32.2747C113.675 32.5414 113.781 32.7147 113.808 32.7947C113.861 32.8747 113.901 32.968 113.928 33.0747C113.955 33.1547 113.981 33.248 114.008 33.3547H115.128C115.661 33.3547 116.115 33.5414 116.488 33.9147C116.861 34.288 117.048 34.7414 117.048 35.2747C117.048 35.7814 116.861 36.2347 116.488 36.6347C116.115 37.008 115.661 37.1947 115.128 37.1947H105.208V37.9547H106.768C108.688 37.9547 110.168 38.1147 111.208 38.4347C112.248 38.728 112.968 39.2747 113.368 40.0747C113.768 40.848 113.968 41.968 113.968 43.4347C113.968 44.9814 113.741 46.1547 113.288 46.9547C112.835 47.728 111.981 48.2614 110.728 48.5547V49.7947H115.168C115.701 49.7947 116.168 49.9947 116.568 50.3947C116.968 50.768 117.168 51.2347 117.168 51.7947C117.168 52.328 116.968 52.7947 116.568 53.1947C116.168 53.5947 115.701 53.7947 115.168 53.7947H110.728V55.0347C110.728 57.0614 110.208 58.488 109.168 59.3147C108.155 60.1414 106.541 60.568 104.328 60.5947ZM84.5681 45.6747C84.3547 45.5414 84.0214 45.3547 83.5681 45.1147C83.1414 44.8747 82.7014 44.6347 82.2481 44.3947C81.7947 44.128 81.4614 43.9414 81.2481 43.8347C80.6614 43.5414 80.2747 43.088 80.0881 42.4747C79.9281 41.8614 80.0081 41.2614 80.3281 40.6747C80.6747 40.0614 81.1547 39.648 81.7681 39.4347C82.4081 39.2214 83.0347 39.2614 83.6481 39.5547C83.8614 39.6347 84.1947 39.808 84.6481 40.0747C85.1281 40.3414 85.6081 40.608 86.0881 40.8747C86.5681 41.1147 86.9014 41.288 87.0881 41.3947C87.7014 41.7414 88.0747 42.248 88.2081 42.9147C88.3681 43.5814 88.2747 44.2214 87.9281 44.8347C87.5814 45.4214 87.0747 45.7947 86.4081 45.9547C85.7681 46.1147 85.1547 46.0214 84.5681 45.6747ZM85.9681 39.6347C85.7814 39.5014 85.4614 39.3147 85.0081 39.0747C84.5547 38.8347 84.1014 38.5947 83.6481 38.3547C83.2214 38.088 82.9014 37.9014 82.6881 37.7947C82.1014 37.4747 81.7147 37.0214 81.5281 36.4347C81.3681 35.8214 81.4614 35.2214 81.8081 34.6347C82.1547 34.0214 82.6347 33.608 83.2481 33.3947C83.8881 33.1547 84.5147 33.1947 85.1281 33.5147C85.3414 33.6214 85.6747 33.808 86.1281 34.0747C86.6081 34.3414 87.0881 34.6214 87.5681 34.9147C88.0481 35.1814 88.3814 35.368 88.5681 35.4747C89.1814 35.8214 89.5548 36.3147 89.6881 36.9547C89.8214 37.5947 89.7014 38.2214 89.3281 38.8347C88.9814 39.4214 88.4747 39.7947 87.8081 39.9547C87.1681 40.088 86.5547 39.9814 85.9681 39.6347ZM105.208 33.3547H109.088L108.888 32.9547C108.781 32.7947 108.701 32.608 108.648 32.3947C108.541 32.448 108.435 32.5014 108.328 32.5547C108.248 32.608 108.141 32.6614 108.008 32.7147C107.341 32.928 106.701 32.928 106.088 32.7147C105.475 32.4747 105.048 32.0214 104.808 31.3547C104.701 31.0614 104.581 30.7414 104.448 30.3947C104.341 30.0214 104.221 29.6747 104.088 29.3547H103.088C102.981 29.5414 102.875 29.7414 102.768 29.9547C102.688 30.1414 102.581 30.3414 102.448 30.5547C102.528 30.528 102.635 30.5147 102.768 30.5147C103.435 30.5147 104.008 30.7414 104.488 31.1947C104.968 31.6214 105.208 32.2214 105.208 32.9947V33.3547ZM99.0081 45.8347H100.288V44.7547H96.7681C96.8481 45.208 97.0481 45.5014 97.3681 45.6347C97.7147 45.768 98.2614 45.8347 99.0081 45.8347ZM96.7681 42.0747H100.288V40.9947H99.0081C98.2614 40.9947 97.7147 41.0614 97.3681 41.1947C97.0481 41.328 96.8481 41.6214 96.7681 42.0747ZM105.208 45.8347H106.448C107.221 45.8347 107.768 45.768 108.088 45.6347C108.408 45.5014 108.621 45.208 108.728 44.7547H105.208V45.8347ZM105.208 42.0747H108.728C108.621 41.6214 108.408 41.328 108.088 41.1947C107.768 41.0614 107.221 40.9947 106.448 40.9947H105.208V42.0747Z" fill="#F2542D"/>
<path d="M66.368 60.2347C65.5413 60.2347 64.8346 59.9547 64.248 59.3947C63.6613 58.8614 63.368 58.1414 63.368 57.2347V39.8747H58.448C57.728 39.8747 57.1013 39.6214 56.568 39.1147C56.0613 38.608 55.808 37.9814 55.808 37.2347C55.808 36.5147 56.0613 35.9014 56.568 35.3947C57.1013 34.8614 57.728 34.5947 58.448 34.5947H63.368V25.5547C63.368 24.6214 63.6613 23.888 64.248 23.3547C64.8346 22.8214 65.5413 22.5547 66.368 22.5547C67.2213 22.5547 67.928 22.8214 68.488 23.3547C69.0746 23.888 69.368 24.6214 69.368 25.5547V34.5947H74.848C75.568 34.5947 76.1813 34.8614 76.688 35.3947C77.2213 35.9014 77.488 36.5147 77.488 37.2347C77.488 37.9814 77.2213 38.608 76.688 39.1147C76.1813 39.6214 75.568 39.8747 74.848 39.8747H69.368V57.2347C69.368 58.1414 69.0746 58.8614 68.488 59.3947C67.928 59.9547 67.2213 60.2347 66.368 60.2347ZM48.328 59.5147C46.5946 59.5147 45.2213 59.3147 44.208 58.9147C43.2213 58.5147 42.5146 57.8614 42.088 56.9547C41.688 56.0747 41.488 54.8747 41.488 53.3547C41.488 51.7814 41.688 50.5547 42.088 49.6747C42.5146 48.768 43.2213 48.128 44.208 47.7547C45.2213 47.3814 46.5946 47.1947 48.328 47.1947C50.088 47.1947 51.4613 47.3814 52.448 47.7547C53.4346 48.128 54.128 48.768 54.528 49.6747C54.9546 50.5547 55.168 51.7814 55.168 53.3547C55.168 54.8747 54.9546 56.0747 54.528 56.9547C54.128 57.8614 53.4346 58.5147 52.448 58.9147C51.4613 59.3147 50.088 59.5147 48.328 59.5147ZM41.608 34.3947C40.9946 34.3947 40.4746 34.1814 40.048 33.7547C39.6213 33.3014 39.408 32.7814 39.408 32.1947C39.408 31.5814 39.6213 31.0614 40.048 30.6347C40.4746 30.208 40.9946 29.9947 41.608 29.9947H54.848C55.4613 29.9947 55.9813 30.208 56.408 30.6347C56.8346 31.0614 57.048 31.5814 57.048 32.1947C57.048 32.7814 56.8346 33.3014 56.408 33.7547C55.9813 34.1814 55.4613 34.3947 54.848 34.3947H41.608ZM43.648 28.6747C43.008 28.6747 42.4613 28.4614 42.008 28.0347C41.5813 27.5814 41.368 27.0347 41.368 26.3947C41.368 25.7814 41.5813 25.248 42.008 24.7947C42.4613 24.3414 43.008 24.1147 43.648 24.1147H53.048C53.688 24.1147 54.2213 24.3414 54.648 24.7947C55.1013 25.248 55.328 25.7814 55.328 26.3947C55.328 27.0347 55.1013 27.5814 54.648 28.0347C54.2213 28.4614 53.688 28.6747 53.048 28.6747H43.648ZM43.528 45.8347C42.9146 45.8347 42.3946 45.6214 41.968 45.1947C41.5413 44.7414 41.328 44.2214 41.328 43.6347C41.328 43.0214 41.5413 42.5014 41.968 42.0747C42.3946 41.6214 42.9146 41.3947 43.528 41.3947H53.128C53.7413 41.3947 54.2613 41.6214 54.688 42.0747C55.1146 42.5014 55.328 43.0214 55.328 43.6347C55.328 44.2214 55.1146 44.7414 54.688 45.1947C54.2613 45.6214 53.7413 45.8347 53.128 45.8347H43.528ZM43.528 40.1147C42.9146 40.1147 42.3946 39.9014 41.968 39.4747C41.5413 39.0214 41.328 38.488 41.328 37.8747C41.328 37.2614 41.5413 36.7414 41.968 36.3147C42.3946 35.888 42.9146 35.6747 43.528 35.6747H53.128C53.7413 35.6747 54.2613 35.888 54.688 36.3147C55.1146 36.7414 55.328 37.2614 55.328 37.8747C55.328 38.488 55.1146 39.0214 54.688 39.4747C54.2613 39.9014 53.7413 40.1147 53.128 40.1147H43.528ZM48.328 55.0747C48.9946 55.0747 49.4346 54.968 49.648 54.7547C49.8613 54.5147 49.968 54.048 49.968 53.3547C49.968 52.6614 49.8613 52.208 49.648 51.9947C49.4346 51.7547 48.9946 51.6347 48.328 51.6347C47.688 51.6347 47.248 51.7547 47.008 51.9947C46.7946 52.208 46.688 52.6614 46.688 53.3547C46.688 54.048 46.7946 54.5147 47.008 54.7547C47.248 54.968 47.688 55.0747 48.328 55.0747Z" fill="#F2542D"/>
<path d="M16.168 60.6747C15.1813 60.6747 14.3947 60.4747 13.808 60.0747C13.248 59.6747 12.928 58.9814 12.848 57.9947C12.7947 57.1947 13.0347 56.5414 13.568 56.0347C14.128 55.528 14.8747 55.248 15.808 55.1947C16.8213 55.1147 17.5147 54.8347 17.888 54.3547C18.2613 53.8747 18.448 53.1014 18.448 52.0347C18.448 51.9814 18.4347 51.928 18.408 51.8747C18.408 51.8214 18.408 51.768 18.408 51.7147C17.128 52.5147 15.6347 53.3414 13.928 54.1947C12.248 55.0214 10.5147 55.7814 8.728 56.4747C6.968 57.168 5.30133 57.728 3.728 58.1547C2.90133 58.368 2.15467 58.3414 1.488 58.0747C0.848 57.8347 0.394667 57.3147 0.128 56.5147C-0.0853334 55.768 -0.032 55.1014 0.288 54.5147C0.634667 53.9014 1.18133 53.5014 1.928 53.3147C3.50133 52.888 5.23467 52.3147 7.128 51.5947C9.02133 50.8747 10.888 50.088 12.728 49.2347C14.5947 48.3547 16.2213 47.5014 17.608 46.6747C17.528 46.4614 17.448 46.248 17.368 46.0347C17.288 45.7947 17.208 45.5814 17.128 45.3947C15.9813 46.168 14.648 46.9414 13.128 47.7147C11.6347 48.4614 10.088 49.168 8.488 49.8347C6.91467 50.4747 5.42133 51.0214 4.008 51.4747C3.10133 51.768 2.35467 51.7814 1.768 51.5147C1.208 51.2214 0.808 50.7414 0.568 50.0747C0.328 49.4614 0.341333 48.848 0.608 48.2347C0.901333 47.5947 1.448 47.168 2.248 46.9547C3.74133 46.528 5.26133 46.0347 6.808 45.4747C8.38133 44.888 9.86133 44.2614 11.248 43.5947C12.6347 42.928 13.8347 42.288 14.848 41.6747C14.7413 41.5414 14.6347 41.408 14.528 41.2747C14.448 41.1414 14.3413 41.0214 14.208 40.9147C12.6347 41.7414 10.9947 42.5147 9.288 43.2347C7.58133 43.928 5.848 44.528 4.088 45.0347C2.328 45.568 1.15467 45.128 0.568 43.7147C0.301333 43.0214 0.301333 42.368 0.568 41.7547C0.861333 41.1147 1.42133 40.688 2.248 40.4747C3.58133 40.1014 4.968 39.6614 6.408 39.1547C7.848 38.6214 9.248 38.048 10.608 37.4347H9.088C8.368 37.4347 7.79467 37.208 7.368 36.7547C6.968 36.3014 6.768 35.7547 6.768 35.1147C6.768 34.4747 6.968 33.928 7.368 33.4747C7.79467 33.0214 8.368 32.7947 9.088 32.7947H27.248C27.968 32.7947 28.528 33.0214 28.928 33.4747C29.3547 33.928 29.568 34.4747 29.568 35.1147C29.568 35.7547 29.3547 36.3014 28.928 36.7547C28.528 37.208 27.968 37.4347 27.248 37.4347H19.808L18.248 38.5147C19.7413 39.8214 20.928 41.3014 21.808 42.9547C22.6347 42.448 23.488 41.9147 24.368 41.3547C25.2747 40.768 26.128 40.208 26.928 39.6747C27.728 39.1147 28.3813 38.6347 28.888 38.2347C29.6347 37.648 30.3813 37.408 31.128 37.5147C31.9013 37.6214 32.448 37.928 32.768 38.4347C33.248 39.1547 33.4213 39.848 33.288 40.5147C33.1813 41.1814 32.7947 41.7414 32.128 42.1947C31.3013 42.7547 30.3013 43.3814 29.128 44.0747C27.9547 44.768 26.7947 45.4347 25.648 46.0747C27.1413 47.328 28.768 48.4747 30.528 49.5147C32.288 50.5547 33.928 51.4347 35.448 52.1547C36.2213 52.5014 36.7413 53.0214 37.008 53.7147C37.3013 54.408 37.2613 55.1014 36.888 55.7947C36.4347 56.7014 35.7947 57.2347 34.968 57.3947C34.1413 57.5814 33.3413 57.4614 32.568 57.0347C31.288 56.368 29.848 55.4747 28.248 54.3547C26.6747 53.208 25.2347 51.9814 23.928 50.6747V51.8747C23.928 54.7814 23.248 56.968 21.888 58.4347C20.528 59.928 18.6213 60.6747 16.168 60.6747ZM3.128 36.4747C2.35467 36.4747 1.688 36.2347 1.128 35.7547C0.568 35.248 0.288 34.568 0.288 33.7147V32.4347C0.288 30.1947 0.821333 28.6214 1.888 27.7147C2.95467 26.7814 4.768 26.3147 7.328 26.3147H15.128V25.0747C15.128 24.2214 15.4347 23.5147 16.048 22.9547C16.6613 22.3947 17.3947 22.1147 18.248 22.1147C19.1013 22.1147 19.8347 22.3947 20.448 22.9547C21.0613 23.5147 21.368 24.2214 21.368 25.0747V26.3147H28.968C31.528 26.3147 33.3413 26.7814 34.408 27.7147C35.4747 28.6214 36.008 30.1947 36.008 32.4347V33.7147C36.008 34.568 35.728 35.248 35.168 35.7547C34.608 36.2347 33.9413 36.4747 33.168 36.4747C32.3947 36.4747 31.728 36.248 31.168 35.7947C30.608 35.3414 30.328 34.688 30.328 33.8347V32.8347C30.328 32.2214 30.168 31.7814 29.848 31.5147C29.5547 31.248 29.008 31.1147 28.208 31.1147H8.088C7.288 31.1147 6.728 31.248 6.408 31.5147C6.11467 31.7814 5.968 32.2214 5.968 32.8347V33.8347C5.968 34.688 5.688 35.3414 5.128 35.7947C4.568 36.248 3.90133 36.4747 3.128 36.4747Z" fill="#F2542D"/>
<path d="M86.5742 1.52344C87.668 1.52344 88.5664 1.89062 89.2695 2.625C89.9727 3.35938 90.4805 4.19531 90.793 5.13281C91.1055 6.05469 91.2617 7 91.2617 7.96875C91.2617 8.9375 91.1055 9.89062 90.793 10.8281C90.4961 11.75 89.9883 12.5781 89.2695 13.3125C88.5664 14.0469 87.668 14.4453 86.5742 14.5078H85.4492C85.0273 14.4922 84.668 14.3438 84.3711 14.0625C84.0898 13.7656 83.9414 13.4062 83.9258 12.9844C83.9258 12.5469 84.0664 12.1719 84.3477 11.8594C84.6445 11.5469 85.0117 11.3828 85.4492 11.3672H85.7773C86.4023 11.3359 86.9023 11.1328 87.2773 10.7578C87.668 10.3672 87.9492 9.92969 88.1211 9.44531C88.293 8.96094 88.3789 8.46875 88.3789 7.96875C88.3789 7.46875 88.2852 6.97656 88.0977 6.49219C87.9102 6.00781 87.6133 5.57812 87.207 5.20312C86.8164 4.8125 86.3398 4.63281 85.7773 4.66406H84.0664V7.75781C84.0508 8.86719 83.8945 9.91406 83.5977 10.8984C83.2852 11.8828 82.7695 12.7188 82.0508 13.4062C81.3477 14.0781 80.4492 14.4453 79.3555 14.5078H78.8867C78.4648 14.4922 78.1055 14.3438 77.8086 14.0625C77.5273 13.7656 77.3789 13.4062 77.3633 12.9844C77.3633 12.5469 77.5039 12.1719 77.7852 11.8594C78.082 11.5469 78.4492 11.3828 78.8867 11.3672C79.2617 11.3359 79.6445 11.1094 80.0352 10.6875C80.4258 10.2656 80.668 9.78906 80.7617 9.25781C80.8711 8.71094 80.918 8.11719 80.9023 7.47656V4.66406H79.168C78.2305 4.58594 77.7227 4.07812 77.6445 3.14062C77.6445 2.70312 77.7852 2.32812 78.0664 2.01562C78.3633 1.70312 78.7305 1.53906 79.168 1.52344H80.9023C80.918 1.10156 81.082 0.742188 81.3945 0.445312C81.707 0.164062 82.082 0.0234375 82.5195 0.0234375C82.9414 0.0390625 83.3008 0.1875 83.5977 0.46875C83.8945 0.765625 84.0508 1.11719 84.0664 1.52344H86.5742ZM91.8008 0.328125C92.1914 0.171875 92.582 0.164062 92.9727 0.304688C93.3633 0.445312 93.6523 0.710938 93.8398 1.10156L95.5977 4.73438C95.8789 5.64062 95.6133 6.3125 94.8008 6.75C94.3945 6.9375 93.9883 6.96875 93.582 6.84375C93.1758 6.70312 92.8789 6.42969 92.6914 6.02344L90.9336 2.36719C90.7773 1.96094 90.7773 1.5625 90.9336 1.17188C91.1055 0.78125 91.3945 0.5 91.8008 0.328125Z" fill="#F2542D"/>
<path d="M60.1602 6.07031C60.1602 5.72656 60.3086 5.4375 60.6055 5.20312C60.918 4.96875 61.293 4.85156 61.7305 4.85156H67.8711V3.89062H61.7305C61.293 3.89062 60.9258 3.77344 60.6289 3.53906C60.3164 3.28906 60.1602 3 60.1602 2.67188C60.1602 2.32812 60.3086 2.03906 60.6055 1.80469C60.918 1.55469 61.293 1.42969 61.7305 1.42969H67.8711C67.8867 1.02344 68.0508 0.679688 68.3633 0.398438C68.6758 0.132812 69.0508 0 69.4883 0C69.9102 0.015625 70.2695 0.15625 70.5664 0.421875C70.8633 0.703125 71.0195 1.03906 71.0352 1.42969H73.7305C74.168 1.42969 74.543 1.54688 74.8555 1.78125C75.1523 2.03125 75.3008 2.32812 75.3008 2.67188C75.3008 3 75.1445 3.28906 74.832 3.53906C74.5352 3.77344 74.168 3.89062 73.7305 3.89062H71.0352V4.85156H73.7305C74.168 4.85156 74.543 4.96875 74.8555 5.20312C75.1523 5.4375 75.3008 5.72656 75.3008 6.07031C75.3008 6.41406 75.1445 6.71094 74.832 6.96094C74.5352 7.19531 74.168 7.3125 73.7305 7.3125H71.0352V8.29688H73.7773C74.2148 8.29688 74.582 8.41406 74.8789 8.64844C75.1914 8.88281 75.3477 9.17969 75.3477 9.53906C75.3477 9.89844 75.1914 10.1797 74.8789 10.3828C74.582 10.6328 74.2148 10.7578 73.7773 10.7578H71.0117C70.9492 11.3984 70.8008 11.9844 70.5664 12.5156C70.2539 13.2031 69.8164 13.75 69.2539 14.1562C68.707 14.5469 67.8867 14.7734 66.793 14.8359H65.9023C65.4648 14.8359 65.043 14.8359 64.6367 14.8359C63.4023 14.7109 62.5195 14.5156 61.9883 14.25C61.2695 13.8906 60.7539 13.4766 60.4414 13.0078C60.1445 12.5391 59.9961 12.0469 59.9961 11.5312C59.9961 11.0469 60.1523 10.5781 60.4648 10.125C60.7773 9.65625 61.2852 9.23438 61.9883 8.85938C62.6914 8.48438 63.543 8.29688 64.543 8.29688H67.8711V7.3125H61.7305C61.293 7.3125 60.9258 7.19531 60.6289 6.96094C60.3164 6.71094 60.1602 6.41406 60.1602 6.07031ZM65.9961 12.3984C66.5898 12.3672 67.0039 12.2578 67.2383 12.0703C67.4727 11.8672 67.6445 11.5938 67.7539 11.25C67.7852 11.1094 67.8164 10.9453 67.8477 10.7578H64.543C64.2461 10.7578 63.9961 10.7969 63.793 10.875C63.6055 10.9531 63.4648 11.0547 63.3711 11.1797C63.2773 11.3047 63.2305 11.4219 63.2305 11.5312C63.2305 11.6094 63.2773 11.7188 63.3711 11.8594C63.4648 12 63.6055 12.125 63.793 12.2344C63.9961 12.3281 64.2461 12.3828 64.543 12.3984H64.7305H65.9961Z" fill="#F2542D"/>
<path d="M40.6133 2.92969C40.6133 2.50781 40.7617 2.15625 41.0586 1.875C41.3555 1.59375 41.7148 1.45312 42.1367 1.45312H46.1445C46.1602 1.04688 46.3086 0.703125 46.5898 0.421875C46.8555 0.15625 47.168 0.0234375 47.5273 0.0234375C47.8867 0.0390625 48.1914 0.1875 48.4414 0.46875C48.6914 0.734375 48.8242 1.0625 48.8398 1.45312H52.3086C52.7305 1.45312 53.0977 1.59375 53.4102 1.875C53.6914 2.15625 53.832 2.50781 53.832 2.92969C53.832 3.33594 53.6836 3.6875 53.3867 3.98438C53.0898 4.26562 52.7305 4.40625 52.3086 4.40625H48.8633C48.8633 4.875 48.8633 5.33594 48.8633 5.78906H51.8164C52.9883 5.83594 53.918 6.07812 54.6055 6.51562C55.293 6.95312 55.8164 7.50781 56.1758 8.17969C56.5508 8.83594 56.7461 9.51562 56.7617 10.2188C56.7617 11.0938 56.6055 11.8359 56.293 12.4453C55.9961 13.0547 55.4883 13.6016 54.7695 14.0859C54.0664 14.5547 53.168 14.7891 52.0742 14.7891H50.9961C50.5586 14.7891 50.1914 14.6406 49.8945 14.3438C49.582 14.0625 49.4258 13.7188 49.4258 13.3125C49.4258 12.8906 49.5742 12.5391 49.8711 12.2578C50.1836 11.9609 50.5586 11.8125 50.9961 11.8125H52.2148C52.5117 11.8125 52.7852 11.7344 53.0352 11.5781C53.2852 11.4062 53.4727 11.0859 53.5977 10.6172C53.7227 10.1484 53.6992 9.75 53.5273 9.42188C53.4336 9.1875 53.2852 8.97656 53.082 8.78906C52.8945 8.60156 52.6602 8.5 52.3789 8.48438H48.8633C48.8633 9.09375 48.8633 9.70312 48.8633 10.3125C48.8633 11.6094 48.5039 12.6406 47.7852 13.4062C47.0664 14.1875 46.0352 14.5625 44.6914 14.5312C43.8008 14.5469 43.0039 14.3359 42.3008 13.8984C41.6133 13.4609 41.1211 12.9141 40.8242 12.2578C40.5273 11.5859 40.3789 10.8906 40.3789 10.1719C40.3789 9.5 40.5273 8.83594 40.8242 8.17969C41.1367 7.50781 41.6211 6.95312 42.2773 6.51562C42.9336 6.07812 43.8477 5.83594 45.0195 5.78906H46.1445V4.40625H42.1367C41.7148 4.40625 41.3555 4.25781 41.0586 3.96094C40.7617 3.67969 40.6133 3.33594 40.6133 2.92969ZM54.4883 2.90625C54.4883 2.45312 54.6523 2.07031 54.9805 1.75781C55.3242 1.42969 55.7383 1.26562 56.2227 1.26562C56.707 1.26562 57.1133 1.42969 57.4414 1.75781C57.7852 2.07031 57.957 2.45312 57.957 2.90625C57.957 3.35938 57.7852 3.75 57.4414 4.07812C57.1133 4.39062 56.707 4.54688 56.2227 4.54688C55.7383 4.54688 55.3242 4.39062 54.9805 4.07812C54.6523 3.75 54.4883 3.35938 54.4883 2.90625ZM45.1133 8.48438C44.6445 8.5 44.2617 8.60156 43.9648 8.78906C43.6836 8.97656 43.4961 9.19531 43.4023 9.44531C43.3086 9.67969 43.2617 9.91406 43.2617 10.1484C43.2617 10.3984 43.3086 10.6484 43.4023 10.8984C43.4961 11.1484 43.6367 11.3672 43.8242 11.5547C44.0273 11.7266 44.2695 11.8125 44.5508 11.8125C45.1133 11.8125 45.5195 11.6719 45.7695 11.3906C46.0195 11.1094 46.1445 10.75 46.1445 10.3125V8.48438H45.1133Z" fill="#F2542D"/>
<path d="M21.2539 2.92969C21.2539 2.50781 21.4023 2.15625 21.6992 1.875C21.9961 1.59375 22.3555 1.45312 22.7773 1.45312H26.7852C26.8008 1.04688 26.9492 0.703125 27.2305 0.421875C27.4961 0.15625 27.8086 0.0234375 28.168 0.0234375C28.5273 0.0390625 28.832 0.1875 29.082 0.46875C29.332 0.734375 29.4648 1.0625 29.4805 1.45312H32.9492C33.3711 1.45312 33.7383 1.59375 34.0508 1.875C34.332 2.15625 34.4727 2.50781 34.4727 2.92969C34.4727 3.33594 34.3242 3.6875 34.0273 3.98438C33.7305 4.26562 33.3711 4.40625 32.9492 4.40625H29.5039C29.5039 4.875 29.5039 5.33594 29.5039 5.78906H32.457C33.6289 5.83594 34.5586 6.07812 35.2461 6.51562C35.9336 6.95312 36.457 7.50781 36.8164 8.17969C37.1914 8.83594 37.3867 9.51562 37.4023 10.2188C37.4023 11.0938 37.2461 11.8359 36.9336 12.4453C36.6367 13.0547 36.1289 13.6016 35.4102 14.0859C34.707 14.5547 33.8086 14.7891 32.7148 14.7891H31.6367C31.1992 14.7891 30.832 14.6406 30.5352 14.3438C30.2227 14.0625 30.0664 13.7188 30.0664 13.3125C30.0664 12.8906 30.2148 12.5391 30.5117 12.2578C30.8242 11.9609 31.1992 11.8125 31.6367 11.8125H32.8555C33.1523 11.8125 33.4258 11.7344 33.6758 11.5781C33.9258 11.4062 34.1133 11.0859 34.2383 10.6172C34.3633 10.1484 34.3398 9.75 34.168 9.42188C34.0742 9.1875 33.9258 8.97656 33.7227 8.78906C33.5352 8.60156 33.3008 8.5 33.0195 8.48438H29.5039C29.5039 9.09375 29.5039 9.70312 29.5039 10.3125C29.5039 11.6094 29.1445 12.6406 28.4258 13.4062C27.707 14.1875 26.6758 14.5625 25.332 14.5312C24.4414 14.5469 23.6445 14.3359 22.9414 13.8984C22.2539 13.4609 21.7617 12.9141 21.4648 12.2578C21.168 11.5859 21.0195 10.8906 21.0195 10.1719C21.0195 9.5 21.168 8.83594 21.4648 8.17969C21.7773 7.50781 22.2617 6.95312 22.918 6.51562C23.5742 6.07812 24.4883 5.83594 25.6602 5.78906H26.7852V4.40625H22.7773C22.3555 4.40625 21.9961 4.25781 21.6992 3.96094C21.4023 3.67969 21.2539 3.33594 21.2539 2.92969ZM35.1289 2.90625C35.1289 2.45312 35.293 2.07031 35.6211 1.75781C35.9648 1.42969 36.3789 1.26562 36.8633 1.26562C37.3477 1.26562 37.7539 1.42969 38.082 1.75781C38.4258 2.07031 38.5977 2.45312 38.5977 2.90625C38.5977 3.35938 38.4258 3.75 38.082 4.07812C37.7539 4.39062 37.3477 4.54688 36.8633 4.54688C36.3789 4.54688 35.9648 4.39062 35.6211 4.07812C35.293 3.75 35.1289 3.35938 35.1289 2.90625ZM25.7539 8.48438C25.2852 8.5 24.9023 8.60156 24.6055 8.78906C24.3242 8.97656 24.1367 9.19531 24.043 9.44531C23.9492 9.67969 23.9023 9.91406 23.9023 10.1484C23.9023 10.3984 23.9492 10.6484 24.043 10.8984C24.1367 11.1484 24.2773 11.3672 24.4648 11.5547C24.668 11.7266 24.9102 11.8125 25.1914 11.8125C25.7539 11.8125 26.1602 11.6719 26.4102 11.3906C26.6602 11.1094 26.7852 10.75 26.7852 10.3125V8.48438H25.7539Z" fill="#F2542D"/>
</svg>
